<?xml version="1.0" encoding="utf-8"?>

<!DOCTYPE svg PUBLIC "-//W3C//DTD SVG 1.1//EN" "http://www.w3.org/Graphics/SVG/1.1/DTD/svg11.dtd">
<svg version="1.1" id="Lager_1" 
	xmlns="http://www.w3.org/2000/svg" 
	xmlns:xlink="http://www.w3.org/1999/xlink" 
	x="0px" y="0px" viewBox="0 0 364.4 80.8"
	style="enable-background:new 0 0 364.4 80.8;" xml:space="preserve">
<style type="text/css">
	.st0{fill:#ffffff;}
	.st1{fill:#F8C024;}
</style>
<switch>
	<g>
		<g>
			<path class="st0" d="M359.8,68.8c-0.7-0.5-1.5-0.7-2.4-0.7c-0.8,0-1.5,0.2-2.1,0.5c-0.6,0.3-1,0.7-1.4,1.2
				c-0.4,0.5-0.6,1.1-0.8,1.8c-0.2,0.7-0.3,1.3-0.3,2c0,0.8,0.1,1.5,0.3,2.2s0.5,1.3,0.8,1.8c0.4,0.5,0.8,0.9,1.4,1.2
				c0.6,0.3,1.3,0.5,2.1,0.5c0.6,0,1.1-0.1,1.6-0.3s0.9-0.5,1.2-0.8s0.6-0.8,0.8-1.2c0.2-0.5,0.3-1,0.3-1.6h1.8
				c-0.2,1.7-0.8,3-1.8,4c-1,0.9-2.4,1.4-4.1,1.4c-1,0-2-0.2-2.7-0.5c-0.8-0.4-1.4-0.9-1.9-1.5s-0.9-1.4-1.2-2.2
				c-0.3-0.9-0.4-1.8-0.4-2.8s0.1-1.9,0.4-2.8c0.3-0.9,0.7-1.6,1.2-2.3c0.5-0.6,1.2-1.2,2-1.5c0.8-0.4,1.7-0.6,2.7-0.6
				c0.7,0,1.4,0.1,2,0.3c0.6,0.2,1.2,0.5,1.7,0.8c0.5,0.4,0.9,0.8,1.2,1.4c0.3,0.5,0.5,1.2,0.6,1.9H361
				C360.9,70,360.5,69.3,359.8,68.8z M346.7,66.9h1.8v13.5h-1.8V66.9z M337.5,72.7h6.2v1.5h-6.2v6.2h-1.8V66.9h8.9v1.5h-7.1V72.7z
				 M326.6,72.7h6.2v1.5h-6.2v6.2h-1.8V66.9h8.9v1.5h-7.1V72.7z M319.9,76.3h-5.7l-1.5,4.1h-1.8l5.3-13.5h2l5.3,13.5h-2L319.9,76.3z
				 M317.1,68.5L317.1,68.5l-2.3,6.3h4.6L317.1,68.5z M308.1,79.8c0-0.2-0.1-0.5-0.1-0.8s0-0.6,0-1c0-0.3-0.1-0.7-0.1-1
				c-0.1-0.3-0.1-0.6-0.2-0.9c-0.1-0.3-0.2-0.6-0.4-0.8c-0.2-0.2-0.4-0.4-0.6-0.5c-0.3-0.1-0.6-0.2-1.1-0.2h-4.4v5.8h-1.8V66.9h6.4
				c1.3,0,2.3,0.3,3,0.9c0.7,0.6,1.1,1.5,1.1,2.6c0,0.8-0.2,1.5-0.6,2.2c-0.4,0.6-1,1-1.8,1.3l0,0c0.4,0.1,0.7,0.2,1,0.4
				c0.2,0.2,0.4,0.4,0.6,0.6c0.1,0.2,0.3,0.5,0.3,0.8c0.1,0.3,0.1,0.6,0.2,0.9c0,0.3,0,0.7,0.1,1c0,0.3,0,0.7,0.1,1
				c0.1,0.3,0.1,0.6,0.2,0.9c0.1,0.3,0.2,0.6,0.4,0.8h-2C308.2,80.3,308.1,80.1,308.1,79.8z M307.8,71.9c0.2-0.3,0.3-0.7,0.3-1.2
				c0-0.7-0.2-1.2-0.6-1.7c-0.4-0.4-1-0.6-1.8-0.6h-4.5v4.7h3.7c0.4,0,0.8,0,1.2-0.1c0.4-0.1,0.7-0.2,1-0.4
				C307.4,72.5,307.6,72.2,307.8,71.9z M293.3,80.4h-1.8v-12H287v-1.5h10.8v1.5h-4.5V80.4z M278.7,79.8c0-0.2-0.1-0.5-0.1-0.8
				s0-0.6,0-1c0-0.3-0.1-0.7-0.1-1c-0.1-0.3-0.1-0.6-0.2-0.9c-0.1-0.3-0.2-0.6-0.4-0.8s-0.4-0.4-0.6-0.5c-0.3-0.1-0.6-0.2-1.1-0.2
				h-4.4v5.8H270V66.9h6.4c1.3,0,2.3,0.3,3,0.9c0.7,0.6,1.1,1.5,1.1,2.6c0,0.8-0.2,1.5-0.6,2.2c-0.4,0.6-1,1-1.8,1.3l0,0
				c0.4,0.1,0.7,0.2,1,0.4c0.2,0.2,0.4,0.4,0.6,0.6c0.1,0.2,0.3,0.5,0.3,0.8c0.1,0.3,0.1,0.6,0.2,0.9c0,0.3,0,0.7,0.1,1
				c0,0.3,0,0.7,0.1,1c0.1,0.3,0.1,0.6,0.2,0.9c0.1,0.3,0.2,0.6,0.4,0.8h-2C278.9,80.3,278.8,80.1,278.7,79.8z M278.5,71.9
				c0.2-0.3,0.3-0.7,0.3-1.2c0-0.7-0.2-1.2-0.6-1.7c-0.4-0.4-1-0.6-1.8-0.6h-4.5v4.7h3.7c0.4,0,0.8,0,1.2-0.1c0.4-0.1,0.7-0.2,1-0.4
				C278.1,72.5,278.3,72.2,278.5,71.9z M265.1,66.9h1.8v13.5h-1.8V66.9z M260.2,76.3h-5.7l-1.5,4.1h-1.8l5.3-13.5h2l5.3,13.5h-2
				L260.2,76.3z M257.4,68.5L257.4,68.5l-2.3,6.3h4.6L257.4,68.5z M235.7,66.9h9.3v1.5h-7.5v4.3h7v1.5h-7v4.7h7.6v1.5h-9.4V66.9z
				 M227.4,80.4l-4.7-13.5h1.9l3.9,11.7l0,0l3.9-11.7h1.9l-4.8,13.5H227.4z M219.2,66.9h1.8v13.5h-1.8V66.9z M208.5,66.9h1.8v12h7.1
				v1.5h-8.9V66.9z"/>
			<g>
				<g>
					<path class="st0" d="M87.1,27.3h4.5v5.3h-4.5V59H81V32.6h-4.5v-5.3H81v-8.4h0.1c0.1-1.2,0.4-2.4,0.9-3.4c0.5-1.1,1.2-2,2-2.8
						s1.8-1.4,2.9-1.9c1.1-0.4,2.2-0.7,3.5-0.7c0.2,0,0.4,0,0.6,0c0.2,0,0.4,0.1,0.6,0.1v5.7c-0.2-0.1-0.4-0.1-0.6-0.2
						c-0.2,0-0.4-0.1-0.6-0.1c-0.9,0-1.6,0.3-2.3,1c-0.6,0.7-0.9,1.4-0.9,2.3v0.4h-0.1L87.1,27.3L87.1,27.3z"/>
					<path class="st0" d="M97.9,59V10.3h6.1v48.8L97.9,59L97.9,59z"/>
					<path class="st0" d="M113.9,20.6c-1,0-1.8-0.3-2.4-1c-0.6-0.7-0.9-1.4-0.9-2.4c0-0.9,0.3-1.7,0.9-2.4c0.6-0.7,1.4-1,2.3-1
						c0.9,0,1.7,0.3,2.4,1s1,1.4,1,2.4c0,0.9-0.3,1.7-1,2.4C115.6,20.2,114.8,20.6,113.9,20.6z M110.8,25.8h6.1l-0.1,33.3h-6.1
						L110.8,25.8z"/>
					<path class="st0" d="M142.5,25.9v16.7v5.2v3.9v5.2v7.3v0.9c-0.1,1.2-0.4,2.3-0.9,3.3s-1.2,1.9-2,2.7s-1.7,1.4-2.8,1.8
						c-1.1,0.4-2.2,0.7-3.4,0.7c-0.2,0-0.4,0-0.6,0c-0.2,0-0.4,0-0.6,0v-5.7c0.3,0.2,0.7,0.3,1.2,0.3c0.9,0,1.6-0.3,2.2-0.9
						c0.6-0.6,0.9-1.4,0.9-2.3v-0.4h0.1v-6.8c-1.4,0.7-2.9,1.1-4.4,1.1c-1.2,0-2.4-0.2-3.4-0.7c-1.1-0.4-2-1-2.8-1.8
						s-1.4-1.7-1.9-2.7s-0.7-2.1-0.7-3.3h-0.1v-1.3v-4.7v-5.2v-3v-2.1h0.1c0-1.1,0.2-2.2,0.7-3.2s1.1-1.9,1.9-2.7
						c0.8-0.8,1.7-1.3,2.8-1.8c1.1-0.4,2.2-0.6,3.4-0.6c1.5,0,2.9,0.3,4.4,1V26v-0.1H142.5z M136,33.9c0-0.4-0.1-0.8-0.3-1.2
						c-0.2-0.4-0.5-0.7-0.9-0.9c-0.4-0.3-0.8-0.5-1.3-0.7s-0.9-0.3-1.3-0.3c-0.8,0-1.6,0.3-2.2,0.9c-0.6,0.6-0.9,1.3-0.9,2.1V50
						c0,0.8,0.3,1.5,0.9,2.1c0.6,0.6,1.3,0.9,2.2,0.9c0.4,0,0.9-0.1,1.3-0.2c0.5-0.1,0.9-0.4,1.3-0.6c0.4-0.3,0.7-0.6,0.9-0.9
						c0.2-0.4,0.3-0.7,0.3-1.2V33.9z"/>
					<path class="st0" d="M168,28.6c0.5,0.6,1.1,1.3,1.5,2s0.7,1.5,1,2.4s0.5,2,0.5,3.2v16.7v0.9V59h-6.1h-0.1v-5.2V51V35.8
						c0-0.5-0.1-0.9-0.4-1.3c-0.3-0.4-0.6-0.8-1-1.1c-0.4-0.3-0.8-0.6-1.3-0.7c-0.5-0.2-1-0.3-1.4-0.3c-0.5,0-1,0.1-1.5,0.3
						c-0.6,0.2-1.1,0.4-1.6,0.7c-0.5,0.3-0.9,0.7-1.2,1.1s-0.5,0.9-0.5,1.3v17.1v0.9V59h-0.1h-4.5h-1.5V10.3h6.1v17.5
						c0.8-0.5,1.8-1,2.7-1.3c1-0.3,2-0.4,3-0.4c1.3,0,2.5,0.2,3.6,0.7C166.2,27.2,167.2,27.8,168,28.6z"/>
					<path class="st0" d="M187.8,42.1v7.8h0.1v0.4c0,0.9,0.3,1.7,0.9,2.3c0.6,0.7,1.4,1,2.3,1c0.2,0,0.4,0,0.6-0.1
						c0.2,0,0.4-0.1,0.6-0.2v5.8c-0.2,0-0.4,0-0.6,0s-0.4,0-0.6,0c-1.3,0-2.4-0.2-3.5-0.7c-1.1-0.4-2.1-1.1-2.9-1.9s-1.5-1.7-2-2.8
						c-0.5-1.1-0.8-2.2-0.9-3.4h-0.1v-8.4v-5.4v-4h-4.4v-5.4h4.5V10.3h6.1v17.1h4.5v5.4h-4.5v4v5.3H187.8z"/>
					<path class="st0" d="M209.5,31c-0.2,0-0.4-0.1-0.8-0.1c-0.8,0-1.5,0.2-2.3,0.7c-0.8,0.4-1.3,1-1.5,1.7v25.8h-6.2V25.9h6.2v0.8
						c1.4-0.7,2.9-1.1,4.5-1.1L209.5,31L209.5,31z"/>
					<path class="st0" d="M214.7,34.1c0-1.2,0.3-2.3,0.8-3.3s1.1-1.9,1.9-2.7c0.8-0.8,1.7-1.4,2.8-1.8c1.1-0.4,2.2-0.7,3.5-0.7
						c1.6,0,3.1,0.4,4.5,1.1v-0.8h6v33.3h-6v-0.8c-1.5,0.7-3,1-4.5,1c-1.2,0-2.4-0.2-3.5-0.7c-1.1-0.4-2.1-1.1-2.9-1.8
						c-0.8-0.8-1.5-1.7-2-2.7c-0.5-1.1-0.7-2.2-0.7-3.3v-1.3v-4.8v-5.3v-3v-2.4H214.7z M220.5,50.4c0,0.8,0.3,1.6,0.9,2.2
						s1.4,0.9,2.3,0.9c0.4,0,0.9-0.1,1.3-0.3c0.5-0.2,0.9-0.4,1.3-0.7c0.4-0.3,0.7-0.6,0.9-1c0.3-0.4,0.4-0.8,0.4-1.2V33.8
						c0-0.4-0.1-0.8-0.4-1.2c-0.3-0.4-0.6-0.7-0.9-1c-0.4-0.3-0.8-0.5-1.3-0.6s-0.9-0.2-1.3-0.2c-0.9,0-1.6,0.3-2.3,0.9
						c-0.6,0.6-0.9,1.3-0.9,2.1V50.4z"/>
					<path class="st0" d="M240.2,48.7v-3v-5.4v-4.8v-1.3c0-1.2,0.2-2.3,0.7-3.3c0.5-1.1,1.1-2,2-2.8c0.8-0.8,1.8-1.4,2.9-1.9
						c1.1-0.4,2.3-0.7,3.5-0.7c1.6,0,3,0.4,4.5,1.1V10.3h6.1v48.8h-6.1v-0.8c-1.4,0.7-2.9,1.1-4.5,1.1c-1.2,0-2.4-0.2-3.5-0.7
						c-1.1-0.4-2.1-1.1-2.9-1.8c-0.8-0.8-1.5-1.7-2-2.7s-0.7-2.1-0.8-3.3L240.2,48.7L240.2,48.7z M246,51c0,0.8,0.3,1.6,0.9,2.1
						c0.6,0.6,1.4,0.9,2.3,0.9c0.4,0,0.9-0.1,1.4-0.2s0.9-0.4,1.3-0.6c0.4-0.3,0.7-0.6,0.9-1c0.3-0.4,0.4-0.8,0.4-1.2V34.4
						c0-0.4-0.1-0.8-0.4-1.2c-0.3-0.4-0.6-0.7-0.9-1c-0.4-0.3-0.8-0.5-1.3-0.7s-0.9-0.3-1.4-0.3c-0.9,0-1.6,0.3-2.3,0.9
						c-0.6,0.6-0.9,1.3-0.9,2.2V51z"/>
					<path class="st0" d="M266.3,34.1c0-1.2,0.3-2.3,0.8-3.3s1.1-1.9,1.9-2.7c0.8-0.8,1.7-1.4,2.8-1.8s2.3-0.7,3.5-0.7
						c1.6,0,3.1,0.4,4.5,1.1v-0.8h6v33.3h-6v-0.8c-1.5,0.7-3,1-4.5,1c-1.2,0-2.4-0.2-3.5-0.7c-1.1-0.4-2.1-1.1-2.9-1.8
						c-0.8-0.8-1.5-1.7-2-2.7c-0.5-1.1-0.7-2.2-0.7-3.3v-1.3v-4.8v-5.3v-3v-2.4H266.3z M272.1,50.4c0,0.8,0.3,1.6,0.9,2.2
						c0.6,0.6,1.4,0.9,2.3,0.9c0.4,0,0.9-0.1,1.3-0.3c0.5-0.2,0.9-0.4,1.3-0.7c0.4-0.3,0.7-0.6,0.9-1c0.3-0.4,0.4-0.8,0.4-1.2V33.8
						c0-0.4-0.1-0.8-0.4-1.2c-0.3-0.4-0.6-0.7-0.9-1c-0.4-0.3-0.8-0.5-1.3-0.6s-0.9-0.2-1.3-0.2c-0.9,0-1.6,0.3-2.3,0.9
						c-0.6,0.6-0.9,1.3-0.9,2.1V50.4z"/>
					<path class="st0" d="M303.4,31c-0.2,0-0.4-0.1-0.8-0.1c-0.8,0-1.5,0.2-2.3,0.7c-0.8,0.4-1.3,1-1.5,1.7v25.8h-6.2V25.9h6.2v0.8
						c1.4-0.7,2.9-1.1,4.5-1.1L303.4,31L303.4,31z"/>
				</g>
				<path class="st1" d="M332.2,52.9v5.8h-25.1v-4.3l4.4-4c8.7-8.1,12.8-12.5,12.8-17.4c0-3.3-1.8-6.2-6.6-6.2c-3.2,0-6,1.6-7.9,3.1
					l-2-4.9c2.7-2.2,6.7-3.8,11.4-3.8c8.2,0,12.2,5.2,12.2,11.2c0,6.5-4.7,11.7-11.1,17.7l-3.2,2.8V53L332.2,52.9L332.2,52.9z
					 M359.6,49.4v9.4H353v-9.4h-16.7v-4.5l15.1-23h8.2v22.3h4.8v5.3h-4.8V49.4z M353,27.6c-1.1,2.3-2.1,4.2-3.2,6.3L343,44l-0.1,0.1
					H353V34c0-2.1,0.1-4.3,0.2-6.4H353L353,27.6z"/>
				<g>
					<path class="st0" d="M35.9,0C16.1,0,0,16.1,0,35.9s16.1,35.9,35.9,35.9s35.9-16.1,35.9-35.9S55.7,0,35.9,0z M35.9,66.4
						c-1.8,0-3.5-0.2-5.3-0.5l1.5-9.1c1.2,0.2,2.4,0.3,3.7,0.3c11.8,0,21.4-9.6,21.4-21.4s-9.6-21.4-21.4-21.4s-21.4,9.6-21.4,21.4
						c0,6.9,3.3,13,8.3,16.9l-5.9,7.1c-7.1-5.6-11.7-14.3-11.7-24c0-16.9,13.7-30.6,30.6-30.6s30.6,13.7,30.6,30.6
						S52.8,66.4,35.9,66.4z M30.3,43.7c-2.5-1.7-4.1-4.6-4.1-7.8c0-5.3,4.3-9.6,9.6-9.6s9.6,4.3,9.6,9.6s-4.3,9.6-9.6,9.6
						c-0.6,0-1.2-0.1-1.7-0.2l1.3-7.9L30.3,43.7z M35.9,47.8c5.4,0,10-3.6,11.4-8.5c0.2,0.3,0.6,0.5,1,0.5c0.7,0,1.4-0.6,1.4-1.4
						S49.1,37,48.3,37c-0.2,0-0.4,0.1-0.6,0.2c0.1-0.5,0.1-0.9,0.1-1.4c0-6.6-5.4-11.9-11.9-11.9S24,29.3,24,35.8
						c0,4,1.9,7.5,4.9,9.6l-4.1,5c-4.4-3.4-7.2-8.7-7.2-14.6c0-1.8,0.3-3.6,0.8-5.3c0.2,0.1,0.4,0.2,0.6,0.2c0.7,0,1.4-0.6,1.4-1.4
						c0-0.6-0.4-1.1-1-1.3c2.9-6.3,9.3-10.6,16.7-10.6c10.1,0,18.4,8.3,18.4,18.4c0,7.5-4.5,14-11,16.9c-0.1-0.6-0.7-1.1-1.3-1.1
						c-0.7,0-1.4,0.6-1.4,1.4c0,0.2,0.1,0.5,0.2,0.7c-1.6,0.4-3.2,0.7-4.9,0.7c-1.1,0-2.2-0.1-3.2-0.3l1.1-6.4
						C34.5,47.7,35.2,47.8,35.9,47.8z"/>
					<circle class="st0" cx="16.9" cy="55.5" r="1.4"/>
					<circle class="st0" cx="35.9" cy="36.1" r="1.4"/>
					<circle class="st0" cx="46.7" cy="11.8" r="1.4"/>
					<circle class="st0" cx="22.7" cy="28.9" r="1.4"/>
				</g>
			</g>
		</g>
	</g>
</switch>
</svg>
